 http://img684.imageshack.us/img684/6262/billcpos.jpg

Country.......: USA
Genre.........: Comedy, Drama
Date release..: 03.09.2010 [World]
Director......: Cristobal Krusen
Writers.......: Cristobal Krusen
Duration......: 97 min.
More..........: http://www.imdb.com/title/tt1305008
Trailer.......: http://www.imdb.com/video/imdblink/vi600245273
Trailer.......:

Pilot :
Lorenzo Adams is in trouble. While working at a bill collection agency in Norfolk, VA an old debt of his own suddenly comes due when Frankie Gutierrez, an L.A. loan shark, shows up at his door. With less than three weeks to payback $100,000 and Frankie's enforcer, Omar, shadowing his every move, Lorenzo cooks up a plan to pay his debt by scamming the collection agency and an inner-city mission. Neither Omar or the people from the mission are what he expects and Lorenzo's scheme doesn't work quite as he plans.

Cats :
Danny Trejo   	 ...  	Frankie Gutierrez
Gary Moore 	... 	Lorenzo Adams
Brandon Hardesty 	... 	Iggy
Ron Kenoly 	... 	Pastor Kevin
Elizabeth Omilami 	... 	Wanda
Tom Ohmer 	... 	Stan Davenport
Kera O Bryon 	... 	Ramona
Tamara Johnson 	... 	Therese
Drew Annen 	... 	Scooter guy
Evan Atwood 	... 	Mime 2
Rafael Barreiro 	... 	Leopold
Lawrence Boyd 	... 	Johnny Jenkins
Daria Burrows 	... 	Tameeka
Sonya Chisholm 	... 	Kasheera
Rachel Cortez Watkins 	... 	Josefina 

Data Technical :
!!! SAMPLE !!!
Audio.....: English
Subtitles.: English .sub
Format                           : AVI
Format/Info                      : Audio Video Interleave
File size                        : 696 MiB
Duration                         : 1h 36mn
Overall bit rate                 : 1 007 Kbps
Writing application              : VirtualDubMod 1.5.10.2 (build 2540/release)
Writing library                  : VirtualDubMod build 2540/release
Video
ID                               : 0
Format                           : MPEG-4 Visual
Format profile                   : Advanced Simple@L5
Format settings, BVOP            : Yes
Format settings, QPel            : No
Format settings, GMC             : No warppoints
Format settings, Matrix          : Default (H.263)
Muxing mode                      : Packed bitstream
Codec ID                         : XVID
Codec ID/Hint                    : XviD
Duration                         : 1h 36mn
Bit rate                         : 806 Kbps
Width                            : 640 pixels
Height                           : 352 pixels
Display aspect ratio             : 16:9
Frame rate                       : 23.976 fps
Color space                      : YUV
Chroma subsampling               : 4:2:0
Bit depth                        : 8 bits
Scan type                        : Progressive
Bits/(Pixel*Frame)               : 0.149
Stream size                      : 557 MiB (80%)
Writing library                  : XviD 1.2.1 (UTC 2008-12-04)
Audio
ID                               : 1
Format                           : AC-3
Format/Info                      : Audio Coding 3
Mode extension                   : CM (complete main)
Codec ID                         : 2000
Duration                         : 1h 36mn
Bit rate mode                    : Constant
Bit rate                         : 192 Kbps
Channel(s)                       : 2 channels
Channel positions                : Front: L R
Sampling rate                    : 48.0 KHz
Bit depth                        : 16 bits
Stream size                      : 133 MiB (19%)
Alignment                        : Split accross interleaves
Interleave, duration             : 42 ms (1.00 video frame)
Interleave, preload duration     : 500 ms

Screen : 
http://img691.imageshack.us/img691/6623/thebillcollector2010s1.jpg 
http://img855.imageshack.us/img855/5594/thebillcollector2010s2.jpg 
http://img854.imageshack.us/img854/6766/thebillcollector2010s3.jpg 
http://img194.imageshack.us/img194/9164/thebillcollector2010s4.jpg 
http://img846.imageshack.us/img846/9708/thebillcollector2010s5.jpg